<?xml version="1.0" encoding="UTF-8"?>
<svg id="Layer_1" xmlns="http://www.w3.org/2000/svg" version="1.1" viewBox="0 0 1080 1080">
  <!-- Generator: Adobe Illustrator 29.8.2, SVG Export Plug-In . SVG Version: 2.1.1 Build 3)  -->
  <defs>
    <style>
      .st0 {
        fill: none;
      }

      .st1 {
        fill: #4f5b4b;
      }
    </style>
  </defs>
  <rect class="st0" width="1080" height="1080"/>
  <g>
    <path class="st1" d="M871.89,445.51c-215.7,68.38-426.66-136.14-437.18-147.02,110.78,114.51,249.35,216.92,442.89,176.53.68-.14,1.08-.86.94-1.54-.89-4.36-3.09-19.5-3.88-26.17-.93-.58-1.87-1.13-2.76-1.8Z"/>
    <path class="st1" d="M938.2,445.34c-.3.02-.6.05-.9.07-7.5.44-14.79.24-21.04,2.97-2.55,1.12-5.16,2.02-7.79,2.75,3.28,6.87,6.3,13.85,9.21,20.88-14.1,17.89-31.66,33.74-49.15,47.47-54.37,42.71-121.03,67.07-189.77,72.6-23.18,1.87-46.51,1.69-69.69-.21-23.04-1.89-46.34-4.73-68.19-12.62-39.78-14.35-72.72-42.9-96.34-77.59-6.18-9.07-11.76-18.54-16.75-28.32-.38-.74-2.41-5.51-2.33-5.16-.71-1.8-1.42-3.59-2.09-5.41-2.51-6.79-4.77-13.67-6.82-20.61-7.67-26.1-12.56-53.24-13.91-80.43-1.9-38.28,5.88-76.06,19.41-111.76,68.23-25.49,143.13-33.63,217.18-20.96,8.87,1.52,17.64,3.44,26.39,5.5.31.1.62.2.92.31,5.62,1.93,11.2,3.98,16.73,6.15,7.55,2.97,14.99,6.23,22.36,9.64,2.37,2.21,4.74,4.42,7.15,6.56,27.02,24,134.69,98.4,161.62,107.7,1.26.43,2.21-1.07,1.06-1.75C612.3,208.02,627.15,14.84,627.15,14.84l-3.4,1.26-9.57,3.39c-86.61,30.79-154.52,103.36-192.34,185.79-3.52,7.67-6.75,15.52-9.77,23.47-78.24,22.87-149.02,68.84-201.92,130.95-116.83,137.21-132.15,340.24-36.85,493.31,45.57,73.2,113.69,131.54,193.11,165.14,21.63,9.15,44,15.98,66.55,22.47,22.79,6.56,45.63,12.65,69.08,16.35,44.46,7.02,90.08,6.87,134.5-.43,45.64-7.51,88.96-22.74,128.63-44.17.22.08.45.13.66.22-.2-.08-.4-.17-.6-.25,113.27-61.22,196.54-173.41,217.12-303.87,3.44-21.81,5.07-43.84,5.15-65.91-.23-68.89-17.23-136.76-49.32-197.21ZM602.28,50.12c.05,13.47,2.49,27.28,5.31,39.32,13.72,58.59,48.3,112.31,90.81,154.21-43.84-14.6-89.17-26.72-135.35-30.35-43.37-3.41-87.24-.06-129.59,9.88,34.77-74.07,94.03-139.28,168.82-173.06ZM682.04,1022.61c-79.87,31.13-167.34,36.06-250.58,16.77-.1-.03-.2-.07-.3-.1-5.62-1.93-11.2-3.98-16.73-6.15-9.81-3.86-19.47-8.09-28.95-12.68-18.84-9.11-36.98-19.64-54.25-31.46-34.33-23.5-65.13-52.11-91.12-84.61-107.87-134.89-121.23-328.22-32.65-476.59,45.95-76.97,115.24-135.52,195.04-169.9-5.82,21.02-9.47,42.61-9.9,64.34-1.03,51.62,12.7,102.08,33.61,148.84,17.96,40.18,41.24,77.46,76.96,104.23,12.94,9.7,26.66,17.02,40.95,22.6-10.06,31.97-14.58,66.55-15.92,99.72-3,73.99,14.98,149.16,62.04,207.65,35.76,44.44,84.72,75.41,137.31,96.28-14.63,7.88-29.8,14.95-45.5,21.07ZM733.59,998.18c-35.05-17.4-67.47-39.91-94.02-68.96-27.31-29.87-47.38-65.72-59.24-104.37-18.34-59.75-17.89-124.53-5.43-185.41,2.1-10.24,4.44-20.56,7.48-30.62,15.84,3.07,32.13,4.77,48.69,5.69,78.98,4.37,158.67-13.35,225.04-57.25,25.33-16.75,50.95-37.69,70.34-62.21,8.22,23.78,14.34,48.31,18.11,73.29,3.16,20.93,4.66,42.06,4.73,63.22-.5,152.07-84.86,293.27-215.71,366.62Z"/>
  </g>
</svg>